<svg version="1.2" xmlns="http://www.w3.org/2000/svg" viewBox="0 0 648 648" width="648" height="648"><style>.a{fill:#00bfff}</style><path fill-rule="evenodd" class="a" d="m186.4 339.5l40.8 10.6-4.4 16.8-40.8-10.6z"/><path fill-rule="evenodd" class="a" d="m208.4 428.8l26.5-32.9 13.5 10.9-26.5 32.9z"/><path fill-rule="evenodd" class="a" d="m311.9 300.2l26.4-32.9 13.6 10.9-26.4 32.9z"/><path fill-rule="evenodd" class="a" d="m363.8 235.7l26.5-32.9 13.5 10.9-26.5 32.9z"/><path fill-rule="evenodd" class="a" d="m467.3 230.4l16.2 38.9-16 6.7-16.2-38.9z"/><path fill-rule="evenodd" class="a" d="m498.9 306.5l16.1 39-16.1 6.6-16.1-39z"/><path fill-rule="evenodd" class="a" d="m346.8 379.9l41 10.1-4.2 16.9-41-10.1z"/><path fill-rule="evenodd" class="a" d="m426.7 399.8l40.9 10.3-4.3 16.9-40.9-10.3z"/><path fill-rule="evenodd" class="a" d="m286.7 332.1h2l11.3 10.2-16.4 21 24.5 6-4.1 16.3-4.1-1-36.8-9.1 2.1-7.1-4.1-4.9z"/><path fill-rule="evenodd" class="a" d="m108 392c-37.6 0-68-30.4-68-68 0-37.6 30.4-68 68-68 37.6 0 68 30.4 68 68 0 37.6-30.4 68-68 68z"/><path fill-rule="evenodd" class="a" d="m432 230c-37.6 0-68-30.4-68-68 0-37.6 30.4-68 68-68 37.6 0 68 30.4 68 68 0 37.6-30.4 68-68 68z"/><path fill-rule="evenodd" class="a" d="m540 500c-37.6 0-68-30.4-68-68 0-37.6 30.4-68 68-68 37.6 0 68 30.4 68 68 0 37.6-30.4 68-68 68z"/><path fill-rule="evenodd" class="a" d="m162 554c-37.6 0-68-30.4-68-68 0-37.6 30.4-68 68-68 37.6 0 68 30.4 68 68 0 37.6-30.4 68-68 68z"/></svg>